<svg width="14" height="9" viewBox="0 0 14 9" fill="none" xmlns="http://www.w3.org/2000/svg">
<path d="M13.2202 2.34689L7.59521 7.97189C7.51683 8.05055 7.42368 8.11297 7.32112 8.15555C7.21856 8.19814 7.10861 8.22006 6.99756 8.22006C6.88651 8.22006 6.77655 8.19814 6.67399 8.15555C6.57143 8.11297 6.47829 8.05055 6.3999 7.97189L0.774901 2.34689C0.616393 2.18839 0.527344 1.9734 0.527344 1.74924C0.527344 1.52507 0.616393 1.31009 0.774901 1.15158C0.933409 0.993072 1.14839 0.904024 1.37256 0.904024C1.59672 0.904024 1.81171 0.993072 1.97021 1.15158L6.99826 6.17963L12.0263 1.15088C12.1848 0.99237 12.3998 0.90332 12.624 0.90332C12.8481 0.90332 13.0631 0.99237 13.2216 1.15088C13.3801 1.30939 13.4692 1.52437 13.4692 1.74853C13.4692 1.9727 13.3801 2.18768 13.2216 2.34619L13.2202 2.34689Z" fill="#343330"/>
</svg>
