<svg width="24" height="24" viewBox="0 0 24 24" fill="none" xmlns="http://www.w3.org/2000/svg">
<circle cx="12" cy="12" r="12" style="fill: white"/>
<path d="M16.854 16.1465C16.9005 16.193 16.9373 16.2481 16.9625 16.3088C16.9876 16.3695 17.0006 16.4346 17.0006 16.5003C17.0006 16.566 16.9876 16.631 16.9625 16.6917C16.9373 16.7524 16.9005 16.8076 16.854 16.854C16.8076 16.9005 16.7524 16.9373 16.6917 16.9625C16.631 16.9876 16.566 17.0006 16.5003 17.0006C16.4346 17.0006 16.3695 16.9876 16.3088 16.9625C16.2481 16.9373 16.193 16.9005 16.1465 16.854L12.0003 12.7072L7.85403 16.854C7.76021 16.9478 7.63296 17.0006 7.50028 17.0006C7.3676 17.0006 7.24035 16.9478 7.14653 16.854C7.05271 16.7602 7 16.633 7 16.5003C7 16.3676 7.05271 16.2403 7.14653 16.1465L11.2934 12.0003L7.14653 7.85403C7.05271 7.76021 7 7.63296 7 7.50028C7 7.3676 7.05271 7.24035 7.14653 7.14653C7.24035 7.05271 7.3676 7 7.50028 7C7.63296 7 7.76021 7.05271 7.85403 7.14653L12.0003 11.2934L16.1465 7.14653C16.2403 7.05271 16.3676 7 16.5003 7C16.633 7 16.7602 7.05271 16.854 7.14653C16.9478 7.24035 17.0006 7.3676 17.0006 7.50028C17.0006 7.63296 16.9478 7.76021 16.854 7.85403L12.7072 12.0003L16.854 16.1465Z" fill="#343330"/>
</svg>
