<svg width="51" height="43" viewBox="0 0 51 43" fill="none" xmlns="http://www.w3.org/2000/svg">
<circle cx="26" cy="21" r="20" style="fill: #E4FFB1" />
<path d="M3.78 9.62C4.16667 9.08667 4.69333 8.65333 5.36 8.32C6.04 7.97333 6.79333 7.8 7.62 7.8C8.59333 7.8 9.47333 8.03333 10.26 8.5C11.0467 8.96667 11.6667 9.63333 12.12 10.5C12.5733 11.3533 12.8 12.3333 12.8 13.44C12.8 14.5467 12.5733 15.54 12.12 16.42C11.6667 17.2867 11.04 17.9667 10.24 18.46C9.45333 18.94 8.58 19.18 7.62 19.18C6.76667 19.18 6.00667 19.0133 5.34 18.68C4.68667 18.3467 4.16667 17.92 3.78 17.4V19H1.5V4.2H3.78V9.62ZM10.48 13.44C10.48 12.68 10.32 12.0267 10 11.48C9.69333 10.92 9.28 10.5 8.76 10.22C8.25333 9.92667 7.70667 9.78 7.12 9.78C6.54667 9.78 6 9.92667 5.48 10.22C4.97333 10.5133 4.56 10.94 4.24 11.5C3.93333 12.06 3.78 12.72 3.78 13.48C3.78 14.24 3.93333 14.9067 4.24 15.48C4.56 16.04 4.97333 16.4667 5.48 16.76C6 17.0533 6.54667 17.2 7.12 17.2C7.70667 17.2 8.25333 17.0533 8.76 16.76C9.28 16.4533 9.69333 16.0133 10 15.44C10.32 14.8667 10.48 14.2 10.48 13.44ZM25.1547 13.22C25.1547 13.6333 25.128 14.0067 25.0747 14.34H16.6547C16.7214 15.22 17.048 15.9267 17.6347 16.46C18.2214 16.9933 18.9414 17.26 19.7947 17.26C21.0214 17.26 21.888 16.7467 22.3947 15.72H24.8547C24.5214 16.7333 23.9147 17.5667 23.0347 18.22C22.168 18.86 21.088 19.18 19.7947 19.18C18.7414 19.18 17.7947 18.9467 16.9547 18.48C16.128 18 15.4747 17.3333 14.9947 16.48C14.528 15.6133 14.2947 14.6133 14.2947 13.48C14.2947 12.3467 14.5214 11.3533 14.9747 10.5C15.4414 9.63333 16.088 8.96667 16.9147 8.5C17.7547 8.03333 18.7147 7.8 19.7947 7.8C20.8347 7.8 21.7614 8.02667 22.5747 8.48C23.388 8.93333 24.0214 9.57333 24.4747 10.4C24.928 11.2133 25.1547 12.1533 25.1547 13.22ZM22.7747 12.5C22.7614 11.66 22.4614 10.9867 21.8747 10.48C21.288 9.97333 20.5614 9.72 19.6947 9.72C18.908 9.72 18.2347 9.97333 17.6747 10.48C17.1147 10.9733 16.7814 11.6467 16.6747 12.5H22.7747ZM31.3984 19.18C30.5318 19.18 29.7518 19.0267 29.0584 18.72C28.3784 18.4 27.8384 17.9733 27.4384 17.44C27.0384 16.8933 26.8251 16.2867 26.7984 15.62H29.1584C29.1984 16.0867 29.4184 16.48 29.8184 16.8C30.2318 17.1067 30.7451 17.26 31.3584 17.26C31.9984 17.26 32.4918 17.14 32.8384 16.9C33.1984 16.6467 33.3784 16.3267 33.3784 15.94C33.3784 15.5267 33.1784 15.22 32.7784 15.02C32.3918 14.82 31.7718 14.6 30.9184 14.36C30.0918 14.1333 29.4184 13.9133 28.8984 13.7C28.3784 13.4867 27.9251 13.16 27.5384 12.72C27.1651 12.28 26.9784 11.7 26.9784 10.98C26.9784 10.3933 27.1518 9.86 27.4984 9.38C27.8451 8.88667 28.3384 8.5 28.9784 8.22C29.6318 7.94 30.3784 7.8 31.2184 7.8C32.4718 7.8 33.4784 8.12 34.2384 8.76C35.0118 9.38667 35.4251 10.2467 35.4784 11.34H33.1984C33.1584 10.8467 32.9584 10.4533 32.5984 10.16C32.2384 9.86667 31.7518 9.72 31.1384 9.72C30.5384 9.72 30.0784 9.83333 29.7584 10.06C29.4384 10.2867 29.2784 10.5867 29.2784 10.96C29.2784 11.2533 29.3851 11.5 29.5984 11.7C29.8118 11.9 30.0718 12.06 30.3784 12.18C30.6851 12.2867 31.1384 12.4267 31.7384 12.6C32.5384 12.8133 33.1918 13.0333 33.6984 13.26C34.2184 13.4733 34.6651 13.7933 35.0384 14.22C35.4118 14.6467 35.6051 15.2133 35.6184 15.92C35.6184 16.5467 35.4451 17.1067 35.0984 17.6C34.7518 18.0933 34.2584 18.48 33.6184 18.76C32.9918 19.04 32.2518 19.18 31.3984 19.18ZM40.742 9.84V15.94C40.742 16.3533 40.8354 16.6533 41.022 16.84C41.222 17.0133 41.5554 17.1 42.022 17.1H43.422V19H41.622C40.5954 19 39.8087 18.76 39.262 18.28C38.7154 17.8 38.442 17.02 38.442 15.94V9.84H37.142V7.98H38.442V5.24H40.742V7.98H43.422V9.84H40.742Z" style="fill: #2A2C36" />
<path d="M3.78 27.6C4.16667 27.0933 4.69333 26.6667 5.36 26.32C6.02667 25.9733 6.78 25.8 7.62 25.8C8.58 25.8 9.45333 26.04 10.24 26.52C11.04 26.9867 11.6667 27.6467 12.12 28.5C12.5733 29.3533 12.8 30.3333 12.8 31.44C12.8 32.5467 12.5733 33.54 12.12 34.42C11.6667 35.2867 11.04 35.9667 10.24 36.46C9.45333 36.94 8.58 37.18 7.62 37.18C6.78 37.18 6.03333 37.0133 5.38 36.68C4.72667 36.3333 4.19333 35.9067 3.78 35.4V42.24H1.5V25.98H3.78V27.6ZM10.48 31.44C10.48 30.68 10.32 30.0267 10 29.48C9.69333 28.92 9.28 28.5 8.76 28.22C8.25333 27.9267 7.70667 27.78 7.12 27.78C6.54667 27.78 6 27.9267 5.48 28.22C4.97333 28.5133 4.56 28.94 4.24 29.5C3.93333 30.06 3.78 30.72 3.78 31.48C3.78 32.24 3.93333 32.9067 4.24 33.48C4.56 34.04 4.97333 34.4667 5.48 34.76C6 35.0533 6.54667 35.2 7.12 35.2C7.70667 35.2 8.25333 35.0533 8.76 34.76C9.28 34.4533 9.69333 34.0133 10 33.44C10.32 32.8667 10.48 32.2 10.48 31.44ZM17.3347 27.58C17.668 27.02 18.108 26.5867 18.6547 26.28C19.2147 25.96 19.8747 25.8 20.6347 25.8V28.16H20.0547C19.1614 28.16 18.4814 28.3867 18.0147 28.84C17.5614 29.2933 17.3347 30.08 17.3347 31.2V37H15.0547V25.98H17.3347V27.58ZM23.8905 24.52C23.4771 24.52 23.1305 24.38 22.8505 24.1C22.5705 23.82 22.4305 23.4733 22.4305 23.06C22.4305 22.6467 22.5705 22.3 22.8505 22.02C23.1305 21.74 23.4771 21.6 23.8905 21.6C24.2905 21.6 24.6305 21.74 24.9105 22.02C25.1905 22.3 25.3305 22.6467 25.3305 23.06C25.3305 23.4733 25.1905 23.82 24.9105 24.1C24.6305 24.38 24.2905 24.52 23.8905 24.52ZM25.0105 25.98V37H22.7305V25.98H25.0105ZM27.2439 31.48C27.2439 30.3467 27.4706 29.3533 27.9239 28.5C28.3906 27.6333 29.0306 26.9667 29.8439 26.5C30.6572 26.0333 31.5906 25.8 32.6439 25.8C33.9772 25.8 35.0772 26.12 35.9439 26.76C36.8239 27.3867 37.4172 28.2867 37.7239 29.46H35.2639C35.0639 28.9133 34.7439 28.4867 34.3039 28.18C33.8639 27.8733 33.3106 27.72 32.6439 27.72C31.7106 27.72 30.9639 28.0533 30.4039 28.72C29.8572 29.3733 29.5839 30.2933 29.5839 31.48C29.5839 32.6667 29.8572 33.5933 30.4039 34.26C30.9639 34.9267 31.7106 35.26 32.6439 35.26C33.9639 35.26 34.8372 34.68 35.2639 33.52H37.7239C37.4039 34.64 36.8039 35.5333 35.9239 36.2C35.0439 36.8533 33.9506 37.18 32.6439 37.18C31.5906 37.18 30.6572 36.9467 29.8439 36.48C29.0306 36 28.3906 35.3333 27.9239 34.48C27.4706 33.6133 27.2439 32.6133 27.2439 31.48ZM50.0961 31.22C50.0961 31.6333 50.0694 32.0067 50.0161 32.34H41.5961C41.6628 33.22 41.9894 33.9267 42.5761 34.46C43.1628 34.9933 43.8828 35.26 44.7361 35.26C45.9628 35.26 46.8294 34.7467 47.3361 33.72H49.7961C49.4628 34.7333 48.8561 35.5667 47.9761 36.22C47.1094 36.86 46.0294 37.18 44.7361 37.18C43.6828 37.18 42.7361 36.9467 41.8961 36.48C41.0694 36 40.4161 35.3333 39.9361 34.48C39.4694 33.6133 39.2361 32.6133 39.2361 31.48C39.2361 30.3467 39.4628 29.3533 39.9161 28.5C40.3828 27.6333 41.0294 26.9667 41.8561 26.5C42.6961 26.0333 43.6561 25.8 44.7361 25.8C45.7761 25.8 46.7028 26.0267 47.5161 26.48C48.3294 26.9333 48.9628 27.5733 49.4161 28.4C49.8694 29.2133 50.0961 30.1533 50.0961 31.22ZM47.7161 30.5C47.7028 29.66 47.4028 28.9867 46.8161 28.48C46.2294 27.9733 45.5028 27.72 44.6361 27.72C43.8494 27.72 43.1761 27.9733 42.6161 28.48C42.0561 28.9733 41.7228 29.6467 41.6161 30.5H47.7161Z" style="fill: #2A2C36" />
</svg>
