<svg width="40" height="40" viewBox="0 0 40 40" fill="none" xmlns="http://www.w3.org/2000/svg">
<circle cx="20" cy="20" r="20" style="fill: white"/>
<path d="M29.0006 20.0004C29.0006 20.1993 28.9216 20.3901 28.7809 20.5307C28.6403 20.6714 28.4495 20.7504 28.2506 20.7504H13.5609L19.0312 26.2198C19.1009 26.2895 19.1562 26.3722 19.1939 26.4632C19.2316 26.5543 19.251 26.6519 19.251 26.7504C19.251 26.849 19.2316 26.9465 19.1939 27.0376C19.1562 27.1286 19.1009 27.2114 19.0312 27.281C18.9615 27.3507 18.8788 27.406 18.7878 27.4437C18.6967 27.4814 18.5991 27.5008 18.5006 27.5008C18.402 27.5008 18.3045 27.4814 18.2134 27.4437C18.1224 27.406 18.0396 27.3507 17.97 27.281L11.22 20.531C11.1502 20.4614 11.0949 20.3787 11.0572 20.2876C11.0194 20.1966 11 20.099 11 20.0004C11 19.9019 11.0194 19.8043 11.0572 19.7132C11.0949 19.6222 11.1502 19.5394 11.22 19.4698L17.97 12.7198C18.1107 12.5791 18.3016 12.5 18.5006 12.5C18.6996 12.5 18.8905 12.5791 19.0312 12.7198C19.1719 12.8605 19.251 13.0514 19.251 13.2504C19.251 13.4494 19.1719 13.6403 19.0312 13.781L13.5609 19.2504H28.2506C28.4495 19.2504 28.6403 19.3294 28.7809 19.4701C28.9216 19.6107 29.0006 19.8015 29.0006 20.0004Z" fill="#2A2C36"/>
</svg>
