<svg width="28" height="25" viewBox="0 0 28 25" fill="none" xmlns="http://www.w3.org/2000/svg">
<path d="M24.7692 3.46344H21.0377L19.2029 0.797356C19.1046 0.654597 18.9715 0.537533 18.8153 0.456537C18.6592 0.37554 18.4848 0.333111 18.3077 0.333008H9.69231C9.51519 0.333111 9.34084 0.37554 9.18469 0.456537C9.02854 0.537533 8.89542 0.654597 8.79712 0.797356L6.96096 3.46344H3.23077C2.37392 3.46344 1.55216 3.79326 0.946271 4.38033C0.340384 4.9674 0 5.76363 0 6.59388V21.2026C0 22.0328 0.340384 22.8291 0.946271 23.4161C1.55216 24.0032 2.37392 24.333 3.23077 24.333H24.7692C25.6261 24.333 26.4478 24.0032 27.0537 23.4161C27.6596 22.8291 28 22.0328 28 21.2026V6.59388C28 5.76363 27.6596 4.9674 27.0537 4.38033C26.4478 3.79326 25.6261 3.46344 24.7692 3.46344ZM25.8462 21.2026C25.8462 21.4793 25.7327 21.7447 25.5307 21.9404C25.3288 22.1361 25.0548 22.2461 24.7692 22.2461H3.23077C2.94515 22.2461 2.67123 22.1361 2.46927 21.9404C2.26731 21.7447 2.15385 21.4793 2.15385 21.2026V6.59388C2.15385 6.31713 2.26731 6.05172 2.46927 5.85603C2.67123 5.66034 2.94515 5.5504 3.23077 5.5504H7.53846C7.71581 5.55051 7.89043 5.50818 8.04684 5.42718C8.20324 5.34617 8.33657 5.22899 8.435 5.08605L10.2685 2.41996H17.7302L19.565 5.08605C19.6634 5.22899 19.7968 5.34617 19.9532 5.42718C20.1096 5.50818 20.2842 5.55051 20.4615 5.5504H24.7692C25.0548 5.5504 25.3288 5.66034 25.5307 5.85603C25.7327 6.05172 25.8462 6.31713 25.8462 6.59388V21.2026ZM14 7.63736C12.8285 7.63736 11.6834 7.97395 10.7093 8.60457C9.73527 9.2352 8.9761 10.1315 8.52779 11.1802C8.07949 12.2289 7.96219 13.3829 8.19073 14.4961C8.41928 15.6094 8.98339 16.632 9.81175 17.4347C10.6401 18.2373 11.6955 18.7839 12.8445 19.0053C13.9934 19.2268 15.1844 19.1131 16.2667 18.6788C17.349 18.2444 18.274 17.5088 18.9249 16.565C19.5757 15.6212 19.9231 14.5116 19.9231 13.3765C19.9213 11.8549 19.2967 10.3961 18.1863 9.32021C17.0759 8.24429 15.5704 7.63908 14 7.63736ZM14 17.0287C13.2545 17.0287 12.5258 16.8145 11.9059 16.4132C11.2861 16.0119 10.803 15.4415 10.5177 14.7741C10.2324 14.1068 10.1578 13.3724 10.3032 12.664C10.4486 11.9555 10.8076 11.3048 11.3348 10.794C11.8619 10.2832 12.5335 9.93541 13.2647 9.79449C13.9958 9.65357 14.7537 9.72589 15.4424 10.0023C16.1312 10.2787 16.7198 10.7469 17.134 11.3474C17.5482 11.948 17.7692 12.6542 17.7692 13.3765C17.7692 14.3451 17.3721 15.274 16.6653 15.959C15.9584 16.6439 14.9997 17.0287 14 17.0287Z" fill="#2A2C36"/>
</svg>
